# CFTUV decal mesh of building.002 (source-local coordinates)
o building.002.CFTUV_Decal
v 4.86253 32.90398 69.87407
v 4.86253 36.99096 69.87399
v 4.86253 29.53244 61.57390
v 4.86253 29.53247 64.56506
v 4.86253 31.30478 63.98859
v 4.86253 29.80423 64.75002
v 4.86253 32.76383 63.24815
v 4.86253 32.85021 61.57399
v 4.86253 32.85087 63.13626
v 4.86253 36.99099 61.57399
v 4.86253 36.99097 65.28559
v 4.86253 29.63139 64.69497
v 4.86253 35.09491 67.07431
v 4.86253 35.07576 66.87744
v 4.86253 29.05158 66.74900
v 4.86253 31.90755 66.74899
v 4.86253 34.93165 66.74899
v 4.86253 28.19438 69.87402
v 4.86253 28.92545 66.86794
v 4.86253 26.49094 69.87398
v 4.86253 26.49097 61.57397
v 4.86253 26.24097 61.32397
v 4.86253 29.78247 64.48071
v 4.86253 28.39087 70.12402
v 4.86253 29.15087 66.99900
v 4.86253 32.60084 63.05051
v 4.86253 31.19164 63.76566
v 4.86253 31.99364 66.99899
v 4.86253 37.24097 65.72398
v 4.86253 29.78244 61.32389
v 4.86253 32.60010 61.32399
v 4.86253 37.24099 61.32399
v 4.86253 37.24096 70.12399
v 4.86253 26.24093 70.12397
v 4.86253 34.83640 66.99899
v 4.86253 32.39089 70.12408
v 4.09262 32.58080 62.80064
v 4.59262 32.58080 62.80064
v 4.09262 32.58019 61.57408
v 4.59262 32.58019 61.57408
v 3.84262 32.58092 63.05064
v 3.84262 32.58007 61.32408
v 4.84262 32.58092 63.05064
v 4.84262 32.58007 61.32408
v 4.09259 29.99637 64.34970
v 4.59259 29.99637 64.34970
v 4.09259 30.83037 63.92655
v 4.09259 32.36890 63.14594
v 4.59259 32.36890 63.14594
v 4.59259 31.53498 63.56905
v 4.84259 29.77342 64.46281
v 3.84259 29.77342 64.46281
v 3.84259 32.59184 63.03282
v 4.84259 32.59184 63.03282
v 4.84259 31.18267 63.74780
v 3.84259 31.18267 63.74780
v 4.09259 29.80247 64.23065
v 4.59259 29.80247 64.23065
v 4.09259 29.80247 61.57410
v 4.59259 29.80247 61.57410
v 4.84259 29.80247 64.48065
v 3.84259 29.80247 64.48065
v 3.84259 29.80247 61.32410
v 4.84259 29.80247 61.32410
v 4.59265 32.85010 61.30410
v 4.59265 36.99097 61.30410
v 4.09265 32.85010 61.30410
v 4.09265 36.99097 61.30410
v 3.84265 32.60010 61.30410
v 3.84265 37.24097 61.30410
v 4.84265 32.60010 61.30410
v 4.84265 37.24097 61.30410
v 4.09262 26.49097 70.14408
v 4.59262 26.49097 70.14408
v 4.09262 28.14096 70.14408
v 4.59262 28.14096 70.14408
v 4.84262 28.39096 70.14408
v 3.84262 26.24097 70.14408
v 3.84262 28.39096 70.14408
v 4.84262 26.24097 70.14408
v 4.59265 36.99097 70.14402
v 4.59265 32.64099 70.14402
v 4.09265 36.99097 70.14402
v 4.09265 32.64099 70.14402
v 3.84265 37.24097 70.14402
v 3.84265 32.39099 70.14402
v 4.84265 37.24097 70.14402
v 4.84265 32.39099 70.14402
v 4.59259 29.11135 67.24654
v 4.59259 28.46944 69.88589
v 4.09259 29.11135 67.24654
v 4.09259 28.46944 69.88589
v 4.84259 28.41036 70.12881
v 4.84259 29.17043 67.00362
v 3.84259 28.41036 70.12881
v 3.84259 29.17043 67.00362
v 4.59259 26.49097 61.30410
v 4.59259 29.53247 61.30410
v 4.09259 26.49097 61.30410
v 4.09259 29.53247 61.30410
v 4.84259 26.24097 61.30410
v 3.84259 26.24097 61.30410
v 3.84259 29.78247 61.30410
v 4.84259 29.78247 61.30410
v 4.09253 37.26097 61.57397
v 4.59253 37.26097 61.57397
v 4.09253 37.26097 69.87402
v 4.09253 37.26097 66.82417
v 4.59253 37.26097 69.87402
v 4.59253 37.26097 64.62408
v 3.84253 37.26097 61.32397
v 3.84253 37.26097 70.12402
v 4.84253 37.26097 65.72412
v 3.84253 37.26097 65.72414
v 4.84253 37.26097 61.32396
v 4.84253 37.26097 70.12401
v 4.09259 34.66661 67.18346
v 4.59259 34.66661 67.18346
v 4.09259 32.52924 69.91487
v 4.59259 32.52924 69.91487
v 3.84259 34.82067 66.98658
v 3.84259 32.37518 70.11176
v 4.84259 34.82067 66.98658
v 4.84259 32.37518 70.11176
v 4.09253 26.22097 61.57397
v 4.59253 26.22097 61.57397
v 4.09253 26.22097 69.87402
v 4.59253 26.22097 69.87402
v 4.84253 26.22097 61.32397
v 3.84253 26.22097 61.32397
v 3.84253 26.22097 70.12402
v 4.84253 26.22097 70.12402
v 4.09265 34.58643 67.01890
v 4.59265 34.58643 67.01890
v 4.09265 29.40100 67.01890
v 4.09265 31.28295 67.01890
v 4.59265 29.40100 67.01890
v 4.59265 32.70430 67.01890
v 4.84265 29.15100 67.01890
v 3.84265 34.83643 67.01890
v 3.84265 29.15100 67.01890
v 4.84265 31.99363 67.01890
v 3.84265 31.99363 67.01890
v 4.84265 34.83643 67.01890
vt 0.99998 1.00000
vt 0.00000 0.00000
vt 19.40025 0.00000
vt 19.40025 0.00000
vt 17.34786 1.00000
vt 0.99998 1.00000
vt 2.05239 1.00000
vt 0.00000 0.00000
vt 15.87284 0.00000
vt 15.87284 0.00000
vt 16.27283 1.00000
vt 2.05239 1.00000
vt -0.38099 1.00000
vt 0.00000 0.00000
vt 11.37107 0.00000
vt -0.38099 1.00000
vt 11.37107 0.00000
vt 22.74215 0.00000
vt 22.74215 0.00000
vt 23.13929 1.00000
vt 11.71543 1.00000
vt 22.74215 0.00000
vt 11.71543 1.00000
vt -0.38099 1.00000
vt -0.29631 1.00000
vt 0.00000 0.00000
vt 12.86445 0.00000
vt 12.86445 0.00000
vt 12.07848 1.00000
vt -0.29631 1.00000
vt 0.78597 1.00000
vt 0.00000 0.00000
vt 8.59974 0.00000
vt 8.59974 0.00000
vt 7.59976 1.00000
vt 0.78597 1.00000
vt 0.99998 1.00000
vt 0.00000 0.00000
vt 35.19997 0.00000
vt 35.19997 0.00000
vt 34.20000 1.00000
vt 0.99998 1.00000
vt 0.99997 1.00000
vt 0.00000 0.00000
vt 14.16590 0.00000
vt 14.16590 0.00000
vt 13.16588 1.00000
vt 0.99997 1.00000
vt 1.00001 1.00000
vt 0.00000 0.00000
vt 12.62727 0.00000
vt 12.62727 0.00000
vt 12.96465 1.00000
vt 1.00001 1.00000
vt -0.40983 1.00000
vt 0.00000 0.00000
vt 6.32085 0.00000
vt 6.32085 0.00000
vt 6.32087 1.00000
vt -0.40983 1.00000
vt -0.00002 1.00000
vt 0.00000 0.00000
vt 6.32108 0.00000
vt 6.32108 0.00000
vt 6.54471 1.00000
vt -0.00002 1.00000
vt -0.34341 1.00000
vt 0.00000 0.00000
vt 6.90609 0.00000
vt 6.90609 0.00000
vt 5.90566 1.00000
vt -0.34341 1.00000
vt 1.00042 1.00000
vt 0.00000 0.00000
vt 18.56354 0.00000
vt 18.56354 0.00000
vt 17.56353 1.00000
vt 1.00042 1.00000
vt 1.00000 1.00000
vt 0.00000 0.00000
vt 17.59999 0.00000
vt 1.00000 1.00000
vt 17.59999 0.00000
vt 35.19997 0.00000
vt 35.19997 0.00000
vt 34.20000 1.00000
vt 15.84643 1.00000
vt 35.19997 0.00000
vt 15.84643 1.00000
vt 1.00000 1.00000
vt 22.74215 0.00000
vt 22.74215 1.00000
vt 22.74215 1.00000
vt 12.62727 0.00000
vt 12.62727 1.00000
vt 12.62727 1.00000
vt 12.62727 0.00000
vt 12.62727 1.00000
vt 12.62727 1.00000
vt 6.32108 0.00000
vt 6.32108 1.00000
vt 6.32108 1.00000
vt 15.87284 0.00000
vt 15.87284 1.00000
vt 15.87284 1.00000
vt 15.87284 0.00000
vt 15.87284 1.00000
vt 15.87284 1.00000
vt 1.00000 1.00000
vt 0.00000 0.00000
vt 4.00000 0.00000
vt 4.00000 0.00000
vt 3.00000 1.00000
vt 1.00000 1.00000
vt 1.00000 1.00000
vt 0.00000 0.00000
vt 6.90625 0.00000
vt 6.90625 0.00000
vt 5.90625 1.00000
vt 1.00000 1.00000
vt 1.00000 1.00000
vt 0.00000 0.00000
vt 4.00000 0.00000
vt 4.00000 0.00000
vt 3.00000 1.00000
vt 1.00000 1.00000
vt 1.00000 1.00000
vt 0.00000 0.00000
vt 6.90625 0.00000
vt 6.90625 0.00000
vt 5.90625 1.00000
vt 1.00000 1.00000
vt 1.00000 1.00000
vt 0.00000 0.00000
vt 4.00000 0.00000
vt 4.00000 0.00000
vt 3.00000 1.00000
vt 1.00000 1.00000
vt 1.00000 1.00000
vt 0.00000 0.00000
vt 6.32107 0.00000
vt 6.32107 0.00000
vt 4.74085 1.00000
vt 1.00000 1.00000
vt -1.58022 1.00000
vt 0.00000 0.00000
vt 6.32068 0.00000
vt 6.32068 0.00000
vt 5.32068 1.00000
vt -1.58022 1.00000
vt 1.00000 1.00000
vt 0.00000 0.00000
vt 4.00000 0.00000
vt 4.00000 0.00000
vt 3.00000 1.00000
vt 1.00000 1.00000
vt 1.00000 1.00000
vt 0.00000 0.00000
vt 6.32068 0.00000
vt 6.32068 0.00000
vt 4.74047 1.00000
vt 1.00000 1.00000
vt -1.58022 1.00000
vt 0.00000 0.00000
vt 6.32107 0.00000
vt 6.32107 0.00000
vt 5.32107 1.00000
vt -1.58022 1.00000
vt 3.00000 1.00000
vt 0.00000 0.00000
vt 4.00000 0.00000
vt 0.00000 0.00000
vt 3.00000 1.00000
vt 1.00000 1.00000
vt 11.62622 1.00000
vt 0.00000 0.00000
vt 12.62622 0.00000
vt 0.00000 0.00000
vt 11.62622 1.00000
vt 1.00000 1.00000
vt 3.00000 1.00000
vt 0.00000 0.00000
vt 4.00000 0.00000
vt 0.00000 0.00000
vt 3.00000 1.00000
vt 1.00000 1.00000
vt 11.62622 1.00000
vt 0.00000 0.00000
vt 12.62622 0.00000
vt 0.00000 0.00000
vt 11.62622 1.00000
vt 1.00000 1.00000
vt 1.00000 1.00000
vt 0.00000 0.00000
vt 18.56348 0.00000
vt 18.56348 0.00000
vt 17.56348 1.00000
vt 1.00000 1.00000
vt 1.00000 1.00000
vt 0.00000 0.00000
vt 4.00000 0.00000
vt 4.00000 0.00000
vt 3.00000 1.00000
vt 1.00000 1.00000
vt 1.00000 1.00000
vt 0.00000 0.00000
vt 18.56348 0.00000
vt 18.56348 0.00000
vt 17.56348 1.00000
vt 1.00000 1.00000
vt 1.00000 1.00000
vt 0.00000 0.00000
vt 4.00000 0.00000
vt 4.00000 0.00000
vt 3.00000 1.00000
vt 1.00000 1.00000
vt 3.00000 1.00000
vt 0.00000 0.00000
vt 4.00000 0.00000
vt 0.00000 0.00000
vt 3.00000 1.00000
vt 1.00000 1.00000
vt 7.59998 1.00000
vt 0.00000 0.00000
vt 8.59998 0.00000
vt 0.00000 0.00000
vt 7.59998 1.00000
vt 1.00000 1.00000
vt 3.00000 1.00000
vt 0.00000 0.00000
vt 4.00000 0.00000
vt 0.00000 0.00000
vt 3.00000 1.00000
vt 1.00000 1.00000
vt 7.59998 1.00000
vt 0.00000 0.00000
vt 8.59998 0.00000
vt 0.00000 0.00000
vt 7.59998 1.00000
vt 1.00000 1.00000
vt 1.00000 1.00000
vt 0.00000 0.00000
vt 19.39990 0.00000
vt 19.39990 0.00000
vt 18.39990 1.00000
vt 1.00000 1.00000
vt 1.00000 1.00000
vt 0.00000 0.00000
vt 4.00000 0.00000
vt 4.00000 0.00000
vt 3.00000 1.00000
vt 1.00000 1.00000
vt 1.00000 1.00000
vt 0.00000 0.00000
vt 19.39990 0.00000
vt 19.39990 0.00000
vt 18.39990 1.00000
vt 1.00000 1.00000
vt 1.00000 1.00000
vt 0.00000 0.00000
vt 4.00000 0.00000
vt 4.00000 0.00000
vt 3.00000 1.00000
vt 1.00000 1.00000
vt 1.00000 1.00000
vt 0.00000 0.00000
vt 12.86513 0.00000
vt 12.86513 0.00000
vt 11.86513 1.00000
vt 1.00000 1.00000
vt 1.00000 1.00000
vt 0.00000 0.00000
vt 4.00000 0.00000
vt 4.00000 0.00000
vt 3.00000 1.00000
vt 1.00000 1.00000
vt 1.00000 1.00000
vt 0.00000 0.00000
vt 12.86513 0.00000
vt 12.86513 0.00000
vt 11.86513 1.00000
vt 1.00000 1.00000
vt 1.00000 1.00000
vt 0.00000 0.00000
vt 4.00000 0.00000
vt 4.00000 0.00000
vt 3.00000 1.00000
vt 1.00000 1.00000
vt 1.00000 1.00000
vt 0.00000 0.00000
vt 14.16602 0.00000
vt 14.16602 0.00000
vt 13.16602 1.00000
vt 1.00000 1.00000
vt 1.00000 1.00000
vt 0.00000 0.00000
vt 4.00000 0.00000
vt 4.00000 0.00000
vt 3.00000 1.00000
vt 1.00000 1.00000
vt 1.00000 1.00000
vt 0.00000 0.00000
vt 14.16602 0.00000
vt 14.16602 0.00000
vt 13.16602 1.00000
vt 1.00000 1.00000
vt 1.00000 1.00000
vt 0.00000 0.00000
vt 4.00000 0.00000
vt 4.00000 0.00000
vt 3.00000 1.00000
vt 1.00000 1.00000
vt 1.00001 1.00000
vt 0.00000 0.00000
vt 4.00000 0.00000
vt 4.00000 0.00000
vt 3.00001 1.00000
vt 1.00001 1.00000
vt 0.99999 1.00000
vt 0.00000 0.00000
vt 17.60064 0.00000
vt 0.99999 1.00000
vt 17.60064 0.00000
vt 35.20020 0.00000
vt 35.20020 0.00000
vt 34.20018 1.00000
vt 22.00078 1.00000
vt 35.20020 0.00000
vt 22.00078 1.00000
vt 0.99999 1.00000
vt 1.00001 1.00000
vt 0.00000 0.00000
vt 4.00000 0.00000
vt 4.00000 0.00000
vt 3.00001 1.00000
vt 1.00001 1.00000
vt 0.99999 1.00000
vt 0.00000 0.00000
vt 17.59956 0.00000
vt 0.99999 1.00000
vt 17.59956 0.00000
vt 35.20020 0.00000
vt 35.20020 0.00000
vt 34.20018 1.00000
vt 21.99971 1.00000
vt 35.20020 0.00000
vt 21.99971 1.00000
vt 0.99999 1.00000
vt 3.00000 1.00000
vt 0.00000 0.00000
vt 4.00000 0.00000
vt 0.00000 0.00000
vt 3.00000 1.00000
vt 1.00000 1.00000
vt 14.87311 1.00000
vt 0.00000 0.00000
vt 15.87311 0.00000
vt 0.00000 0.00000
vt 14.87311 1.00000
vt 1.00000 1.00000
vt 3.00000 1.00000
vt 0.00000 0.00000
vt 4.00000 0.00000
vt 0.00000 0.00000
vt 3.00000 1.00000
vt 1.00000 1.00000
vt 14.87311 1.00000
vt 0.00000 0.00000
vt 15.87311 0.00000
vt 0.00000 0.00000
vt 14.87311 1.00000
vt 1.00000 1.00000
vt 3.00000 1.00000
vt 0.00000 0.00000
vt 4.00000 0.00000
vt 0.00000 0.00000
vt 3.00000 1.00000
vt 1.00000 1.00000
vt 34.20020 1.00000
vt 0.00000 0.00000
vt 35.20020 0.00000
vt 0.00000 0.00000
vt 34.20020 1.00000
vt 1.00000 1.00000
vt 3.00000 1.00000
vt 0.00000 0.00000
vt 4.00000 0.00000
vt 0.00000 0.00000
vt 3.00000 1.00000
vt 1.00000 1.00000
vt 34.20020 1.00000
vt 0.00000 0.00000
vt 35.20020 0.00000
vt 0.00000 0.00000
vt 34.20020 1.00000
vt 1.00000 1.00000
vt 1.00000 1.00000
vt 0.00000 0.00000
vt 4.00000 0.00000
vt 4.00000 0.00000
vt 3.00000 1.00000
vt 1.00000 1.00000
vt 1.00000 1.00000
vt 0.00000 0.00000
vt 11.37120 0.00000
vt 1.00000 1.00000
vt 11.37120 0.00000
vt 22.74170 0.00000
vt 22.74170 0.00000
vt 21.74170 1.00000
vt 14.21391 1.00000
vt 22.74170 0.00000
vt 14.21391 1.00000
vt 1.00000 1.00000
vt 1.00000 1.00000
vt 0.00000 0.00000
vt 4.00000 0.00000
vt 4.00000 0.00000
vt 3.00000 1.00000
vt 1.00000 1.00000
vt 1.00000 1.00000
vt 0.00000 0.00000
vt 11.37050 0.00000
vt 1.00000 1.00000
vt 11.37050 0.00000
vt 22.74170 0.00000
vt 22.74170 0.00000
vt 21.74170 1.00000
vt 14.21321 1.00000
vt 22.74170 0.00000
vt 14.21321 1.00000
vt 1.00000 1.00000
f 2/1 33/2 36/3
f 36/4 1/5 2/6
f 1/7 36/8 35/9
f 35/10 13/11 1/12
f 17/13 35/14 28/15
f 17/16 28/17 25/18
f 25/19 15/20 16/21
f 25/22 16/23 17/24
f 19/25 25/26 24/27
f 24/28 18/29 19/30
f 18/31 24/32 34/33
f 34/34 20/35 18/36
f 20/37 34/38 22/39
f 22/40 21/41 20/42
f 21/43 22/44 30/45
f 30/46 3/47 21/48
f 3/49 30/50 23/51
f 23/52 4/53 3/54
f 6/55 23/56 27/57
f 27/58 5/59 6/60
f 5/61 27/62 26/63
f 26/64 7/65 5/66
f 9/67 26/68 31/69
f 31/70 8/71 9/72
f 8/73 31/74 32/75
f 32/76 10/77 8/78
f 10/79 32/80 29/81
f 10/82 29/83 33/84
f 33/85 2/86 11/87
f 33/88 11/89 10/90
f 25/91 19/92 15/93
f 23/94 12/95 4/96
f 23/97 6/98 12/99
f 26/100 9/101 7/102
f 35/103 14/104 13/105
f 35/106 17/107 14/108
f 38/109 43/110 41/111
f 41/112 37/113 38/114
f 37/115 41/116 42/117
f 42/118 39/119 37/120
f 39/121 42/122 44/123
f 44/124 40/125 39/126
f 40/127 44/128 43/129
f 43/130 38/131 40/132
f 46/133 51/134 52/135
f 52/136 45/137 46/138
f 45/139 52/140 56/141
f 56/142 47/143 45/144
f 47/145 56/146 53/147
f 53/148 48/149 47/150
f 48/151 53/152 54/153
f 54/154 49/155 48/156
f 49/157 54/158 55/159
f 55/160 50/161 49/162
f 50/163 55/164 51/165
f 51/166 46/167 50/168
f 58/169 62/170 61/171
f 62/172 58/173 57/174
f 57/175 63/176 62/177
f 63/178 57/179 59/180
f 59/181 64/182 63/183
f 64/184 59/185 60/186
f 60/187 61/188 64/189
f 61/190 60/191 58/192
f 66/193 72/194 71/195
f 71/196 65/197 66/198
f 65/199 71/200 69/201
f 69/202 67/203 65/204
f 67/205 69/206 70/207
f 70/208 68/209 67/210
f 68/211 70/212 72/213
f 72/214 66/215 68/216
f 74/217 78/218 80/219
f 78/220 74/221 73/222
f 73/223 79/224 78/225
f 79/226 73/227 75/228
f 75/229 77/230 79/231
f 77/232 75/233 76/234
f 76/235 80/236 77/237
f 80/238 76/239 74/240
f 82/241 88/242 87/243
f 87/244 81/245 82/246
f 81/247 87/248 85/249
f 85/250 83/251 81/252
f 83/253 85/254 86/255
f 86/256 84/257 83/258
f 84/259 86/260 88/261
f 88/262 82/263 84/264
f 90/265 93/266 94/267
f 94/268 89/269 90/270
f 89/271 94/272 96/273
f 96/274 91/275 89/276
f 91/277 96/278 95/279
f 95/280 92/281 91/282
f 92/283 95/284 93/285
f 93/286 90/287 92/288
f 98/289 104/290 101/291
f 101/292 97/293 98/294
f 97/295 101/296 102/297
f 102/298 99/299 97/300
f 99/301 102/302 103/303
f 103/304 100/305 99/306
f 100/307 103/308 104/309
f 104/310 98/311 100/312
f 106/313 115/314 111/315
f 111/316 105/317 106/318
f 105/319 111/320 114/321
f 105/322 114/323 112/324
f 112/325 107/326 108/327
f 112/328 108/329 105/330
f 107/331 112/332 116/333
f 116/334 109/335 107/336
f 109/337 116/338 113/339
f 109/340 113/341 115/342
f 115/343 106/344 110/345
f 115/346 110/347 109/348
f 118/349 121/350 123/351
f 121/352 118/353 117/354
f 117/355 122/356 121/357
f 122/358 117/359 119/360
f 119/361 124/362 122/363
f 124/364 119/365 120/366
f 120/367 123/368 124/369
f 123/370 120/371 118/372
f 126/373 130/374 129/375
f 130/376 126/377 125/378
f 125/379 131/380 130/381
f 131/382 125/383 127/384
f 127/385 132/386 131/387
f 132/388 127/389 128/390
f 128/391 129/392 132/393
f 129/394 128/395 126/396
f 134/397 144/398 140/399
f 140/400 133/401 134/402
f 133/403 140/404 143/405
f 133/406 143/407 141/408
f 141/409 135/410 136/411
f 141/412 136/413 133/414
f 135/415 141/416 139/417
f 139/418 137/419 135/420
f 137/421 139/422 142/423
f 137/424 142/425 144/426
f 144/427 134/428 138/429
f 144/430 138/431 137/432
