<svg xmlns="http://www.w3.org/2000/svg" viewBox="0 0 1600 1000" role="img" aria-labelledby="t d">
  <title id="t">EC0-C10 Y merge junction</title><desc id="d">Two branches merge through a junction into one semantic downstream route.</desc>
  <defs><marker id="arrow" viewBox="0 0 10 10" refX="9" refY="5" markerWidth="7" markerHeight="7" orient="auto"><path d="M0 0L10 5L0 10Z" fill="#7c3aed"/></marker></defs>
  <style>.bg{fill:#f8fafc}.p{fill:#fff;stroke:#94a3b8;stroke-width:2}.h{font:700 28px Arial;fill:#0f172a}.l{font:700 20px Arial;fill:#334155}.n{font:16px Arial;fill:#475569}.sk{fill:none;stroke:#2563eb;stroke-width:8;stroke-linecap:round;stroke-linejoin:round}.ca{fill:#bfdbfe;stroke:#2563eb;stroke-width:3}.cb{fill:#bbf7d0;stroke:#15803d;stroke-width:3}.cj{fill:#fde68a;stroke:#b45309;stroke-width:3}.dv{fill:none;stroke:#d97706;stroke-width:4;stroke-dasharray:9 7}.fl{fill:none;stroke:#7c3aed;stroke-width:5;marker-end:url(#arrow)}.mut{fill:#e2e8f0;stroke:#64748b;stroke-width:2}.evt{fill:#fff7ed;stroke:#d97706;stroke-width:2}</style>
  <rect class="bg" width="1600" height="1000"/><text class="h" x="60" y="52">EC0-C10 · Y merge/split junction · DEFINED</text>
  <g transform="translate(50 80)"><rect class="p" width="730" height="300" rx="14"/><text class="l" x="24" y="34">1 · SKELETON</text><path class="sk" d="M100 70L350 165L100 260M350 165H620"/><circle cx="350" cy="165" r="12" fill="#b45309"/><text class="n" x="365" y="154">merge</text></g>
  <g transform="translate(820 80)"><rect class="p" width="730" height="300" rx="14"/><text class="l" x="24" y="34">2 · COVERAGE</text><path class="ca" d="M70 30L340 115H630V215H340L70 300L40 210L250 165L40 120Z"/><text class="n" x="345" y="175">one union · one downstream</text></g>
  <g transform="translate(50 410)"><rect class="p" width="730" height="300" rx="14"/><path class="ca" d="M70 30L340 115L300 165L40 120Z"/><path class="cb" d="M40 210L300 165L340 215L70 300Z"/><path class="cj" d="M300 165L340 115H430V215H340Z"/><rect class="ca" x="430" y="115" width="200" height="100"/><path class="dv" d="M300 165H430"/><text class="l" x="24" y="34">3 · OWNERSHIP</text><text class="n" x="320" y="190">junction</text></g>
  <g transform="translate(820 410)"><rect class="p" width="730" height="300" rx="14"/><text class="l" x="24" y="34">4 · UV / STATION FLOW</text><path class="fl" d="M90 75L350 165H620"/><path class="fl" d="M90 255L350 165"/><text class="n" x="100" y="55">branch A s</text><text class="n" x="100" y="285">branch B s</text><text class="n" x="430" y="145">single merged s</text></g>
  <g transform="translate(50 740)"><rect class="p" width="1500" height="220" rx="14"/><text class="l" x="24" y="34">5 · ALPHA EVOLUTION</text><g transform="translate(80 62)"><rect class="mut" width="380" height="125" rx="10"/><path class="sk" d="M35 25L190 62L35 100M190 62H345"/><text class="n" x="128" y="122">Y skeleton</text></g><g transform="translate(560 62)"><rect class="evt" width="380" height="125" rx="10"/><path class="cj" d="M145 25L240 45V82L145 105L105 65Z"/><text class="n" x="250" y="70">merge event</text></g><g transform="translate(1040 62)"><rect class="mut" width="380" height="125" rx="10"/><path class="ca" d="M25 20L180 45H355V85H180L25 110L15 80L120 65L15 50Z"/><text class="n" x="130" y="122">one downstream route</text></g></g>
</svg>

